PathFileType	4	(X/Y/Z)	Patient4_TMGait_0pt4_03_right_38.trc.trc
DataRate	CameraRate	NumFrames	NumMarkers	Units	OrigDataRate	OrigDataStartFrame	OrigNumFrames
75.675675675676	75.675675675676	5	33	mm	75.675675675676	53	       141
Frame#	Time	Sacral			L.Shoulder			Chest			R.Shoulder			Neck			R.ASIS			L.ASIS			R.Thigh.Superior			R.Thigh.Lateral			R.Thigh.Inferior			R.Patella			L.Thigh.Superior			L.Thigh.Lateral			L.Thigh.Inferior			L.Patella			L.Shank.Superior			L.Shank.Lateral			L.Shank.Inferior			R.Shank.Superior			R.Shank.Lateral			R.Shank.Inferior			R.Heel			R.Midfoot.Superior			R.Midfoot.Lateral			R.Toe			L.Heel			L.Midfoot.Lateral			L.Midfoot.Superior			L.Toe			L.Elbow			L.Wrist			R.Elbow			R.Wrist			
		X1	Y1	Z1	X2	Y2	Z2	X3	Y3	Z3	X4	Y4	Z4	X5	Y5	Z5	X6	Y6	Z6	X7	Y7	Z7	X8	Y8	Z8	X9	Y9	Z9	X10	Y10	Z10	X11	Y11	Z11	X12	Y12	Z12	X13	Y13	Z13	X14	Y14	Z14	X15	Y15	Z15	X16	Y16	Z16	X17	Y17	Z17	X18	Y18	Z18	X19	Y19	Z19	X20	Y20	Z20	X21	Y21	Z21	X22	Y22	Z22	X23	Y23	Z23	X24	Y24	Z24	X25	Y25	Z25	X26	Y26	Z26	X27	Y27	Z27	X28	Y28	Z28	X29	Y29	Z29	X30	Y30	Z30	X31	Y31	Z31	X32	Y32	Z32	X33	Y33	Z33	

53	50.417142857143	887.636452461098	1004.138417595386	537.170654443075	1028.059946027610	1437.551466563257	342.520807719221	1149.848735679078	1375.196866281210	492.738737590717	1082.056652338490	1442.004516012213	675.853822698971	1022.497297906893	1499.503137850022	501.022669357120	1126.499831110182	946.208375615515	633.554202325538	1087.682756980234	969.933457664465	361.836208275793	1151.618126424093	739.942561426936	601.624398820638	1065.707692205297	633.711575493315	666.021465001055	1135.099330885520	577.827041759125	583.949092918274	1128.631202906850	491.445516863109	589.559562338361	1175.598851805906	788.372461999210	374.144888376308	1124.986945097317	661.852760561172	294.416183589359	1236.540110803508	602.799974426272	338.855231116789	1253.480002638994	518.545849755263	327.888991862288	1198.780649916063	445.804395657150	322.148485168142	1066.197131205783	376.952303372598	281.247044228577	1087.208809217663	245.376017348905	327.738764793821	1098.224148922988	403.173294777910	595.671586881264	1024.943714627995	301.204734068463	658.738393712834	1061.677754407089	206.045172675647	591.486164491235	922.405816698633	43.643618623448	562.863191753939	1094.418907213144	96.422287623347	594.565188085390	1007.511791979517	37.208970909294	635.384373785582	1215.589701200236	42.514516773575	618.027388818873	921.161867387003	137.869304869695	375.424890273805	978.698913767720	110.442246223708	287.853568249779	1080.730912101149	141.905368026111	302.454842089313	1177.992116197257	52.810434712447	259.458016597943	988.949137861963	1080.928574548186	242.328972088373	1041.100782351022	825.847858474717	226.082759270427	1126.369041044032	1100.612667011152	811.740395080064	1310.766078560093	916.314602396269	803.104694520956	
54	50.430357142857	886.522961813864	1004.765219041718	538.351935674487	1027.073810780691	1437.775694307960	343.550949732073	1149.811493343994	1374.903391679067	492.760111951345	1083.674671163333	1441.912123763528	676.434128538288	1022.991220043309	1499.551431605719	502.207059038502	1125.533070988536	945.813560833659	633.501490696753	1085.661373467682	970.277214685146	361.966017875788	1148.761785231641	739.344702611067	601.171263351734	1062.386281988630	633.662420875265	666.178314649456	1130.741812992226	577.336684864423	583.721078608000	1123.756939766042	491.236626244618	589.368247945647	1173.702313048846	789.489094267071	374.451519183537	1123.930506599907	662.681381766522	294.636137498968	1235.367181742125	604.238555546546	339.818452046663	1253.723472074330	521.540746822787	328.668727620204	1202.589298163956	447.971225068582	322.174237959618	1074.553742034785	371.775117361316	280.683893905257	1103.726924297592	241.253381869411	326.031603449134	1093.237164744425	403.029755797479	595.593474637342	1019.991521846586	301.132589231996	658.807362735597	1056.471804725881	205.965842734074	591.493027273043	917.063573069311	43.602178876929	562.922693476377	1089.075693072982	96.398751135067	594.597384274670	1002.170769005534	37.176594767599	635.453177813403	1210.224738743160	42.518864313957	618.046747862892	945.133923903228	122.941572922742	373.108956460207	1003.930426384481	100.368815696103	285.050460137181	1103.726206388368	138.023759454809	299.771628217805	1206.278453292317	56.090275394920	255.450836432574	979.896450573815	1082.048323583604	244.096873074954	1022.579533311367	825.362039030812	229.721494480517	1136.385364345674	1101.991223128468	812.495075372645	1329.630635002524	927.346807756528	801.508272693811	
55	50.443571428571	885.391229358009	1005.336188358623	539.333594842974	1026.179063284912	1437.932568112586	344.417475908221	1149.838739508215	1374.496155193235	492.605675366657	1085.356399008459	1441.700951639140	676.833048497300	1023.563459934577	1499.506980863018	503.235142363933	1124.570536169878	945.378254400837	633.292178403176	1083.693359825398	970.455396080963	361.930101670149	1145.876298059240	738.700397160997	600.662167650007	1059.030531271273	633.603493453171	666.306276254023	1126.301774917403	576.838333046225	583.455562216947	1118.792711497918	491.027136084889	589.162282339988	1171.442295299498	789.995790805821	374.747254858099	1122.334120869228	663.074406623700	294.766151240110	1233.304035962961	604.884904860351	341.142225378098	1253.006518522743	523.985863245857	329.773107478486	1205.639658611844	449.885332936103	322.373939247590	1082.939932802732	366.284604550906	279.924255014835	1120.447693530404	237.362347184724	324.284466703895	1088.184829156171	402.896508946636	595.513731290775	1015.000254011356	301.041460792691	658.876825582655	1051.230397380323	205.876412825304	591.483815075883	911.710449996319	43.549931393152	562.968972189218	1083.723565281556	96.369010827483	594.616496500014	996.826255425822	37.139584402105	635.512760612351	1204.863025471416	42.527875334752	618.068608336026	970.138981626096	108.431705194930	370.398350367739	1030.213716339905	90.751117470637	282.074719889806	1127.322561834225	134.609602357309	297.136850267867	1234.981331746805	60.139352443566	251.961906900246	970.731239077282	1083.356629312881	245.695159457142	1004.855674097316	825.525950748906	233.452515173509	1146.031479446642	1103.422054688584	812.902461793575	1347.695289415891	939.000976138232	799.365602358950	
56	50.456785714286	884.257696905655	1005.843041367993	540.129485778204	1025.372957011137	1438.031219486575	345.104031820016	1149.918782034501	1373.982969815407	492.267930736365	1087.077253948134	1441.368965869700	677.040368921690	1024.188289638369	1499.380036667647	504.075537222516	1123.627084602608	944.913837792232	632.923520336959	1081.782894388862	970.462881309759	361.726495429655	1143.002362681534	738.013056423747	600.128342254387	1055.662017288164	633.536383247793	666.407098721445	1121.810202537674	576.336130010136	583.169939908522	1113.761605355165	490.821370635416	588.952467381388	1168.838548567720	789.919519206299	375.047223196737	1120.251531594455	663.071633357511	294.783561823095	1230.452340983085	604.810371690066	342.743679150964	1251.446787034788	525.918546153846	331.139039116250	1207.981427704066	451.593251134339	322.738546486080	1091.337507701834	360.729641298618	278.969022239159	1137.117356828808	233.967281071066	322.599781812290	1083.084026834442	402.778256622492	595.441241401660	1009.975696237765	300.940030416592	658.954541246514	1045.963121561459	205.782636437922	591.465928945901	906.349243490463	43.489457523913	563.006571852280	1078.364078989530	96.336796687591	594.627639010737	991.479421918481	37.100213021981	635.565377548990	1199.505166352688	42.545251922796	618.094399384080	995.732596185553	94.913045923032	367.418057539707	1057.136078333414	81.996851727420	279.103786679262	1151.147196327704	131.919228372258	294.727887291392	1263.617260802778	65.015525344095	249.311402614714	961.586456215762	1084.843283880243	247.172855127634	987.955112694715	826.217543100907	237.266778077601	1155.305192771636	1104.869912438371	812.950577436984	1364.870910687373	951.171978072879	796.715026725292	
57	50.470000000000	883.144282950521	1006.282052819559	540.754260303298	1024.651285340208	1438.084095475731	345.594813753724	1150.037644732337	1373.381470988950	491.742725508805	1088.805956644533	1440.926873176248	677.046222424241	1024.838058072783	1499.185462044080	504.698931265647	1122.717724482861	944.429979275838	632.394773934985	1079.934438042707	970.309656201401	361.356137831263	1140.177797748410	737.286277308595	599.592003288281	1052.296467723974	633.463777938362	666.475495958912	1117.293279824728	575.834430555373	582.872451643040	1108.684653282148	490.624000927414	588.739981137561	1165.928053653277	789.320769017726	375.354628639939	1117.752322695743	662.731033431026	294.667997596854	1226.952956004779	604.126433687823	344.501258342335	1249.189284268938	527.399721329233	332.680878241587	1209.683973440414	453.141341993910	323.245156951926	1099.683634597698	355.341704252635	277.847522320448	1153.449322467182	231.265558354380	321.079553935595	1077.946191145916	402.678454984434	595.375834382301	1004.920569540601	300.838793069628	659.041216450365	1040.677066237032	205.691383032106	591.444126644564	900.982902624305	43.423630250737	563.039505825087	1072.998359200267	96.305738011880	594.634523880942	986.130817222276	37.060944194413	635.613075196034	1194.150439143628	42.574740843837	618.123534783040	1021.380554864385	82.848580084977	364.333109437699	1084.192623339874	74.404495300408	276.332331618368	1174.774717163670	130.112547717190	292.708504279973	1291.678933993659	70.669606256368	247.757375016757	952.591854418298	1086.490789648080	248.573806036945	971.885393856092	827.330982974371	241.140344342287	1164.208738271486	1106.312576650085	812.623237715905	1381.083085586546	963.748545032435	793.597327484950	
